<svg width="20" height="18" viewBox="0 0 20 18" fill="none" xmlns="http://www.w3.org/2000/svg">
<path d="M13.536 5.46379C14.0004 5.9281 14.3688 6.47935 14.6202 7.08606C14.8716 7.69278 15.0009 8.34307 15.0009 8.99979C15.0009 9.65651 14.8716 10.3068 14.6202 10.9135C14.3688 11.5202 14.0004 12.0715 13.536 12.5358V5.46379ZM16.364 2.63579C17.1997 3.47152 17.8627 4.46367 18.315 5.55561C18.7673 6.64755 19.0001 7.81788 19.0001 8.99979C19.0001 10.1817 18.7673 11.352 18.315 12.444C17.8627 13.5359 17.1997 14.5281 16.364 15.3638V2.63579ZM3.586 11.9998H2C1.73478 11.9998 1.48043 11.8944 1.29289 11.7069C1.10536 11.5194 1 11.265 1 10.9998V6.99979C1 6.73457 1.10536 6.48022 1.29289 6.29268C1.48043 6.10514 1.73478 5.99979 2 5.99979H3.586L8.293 1.29279C8.43285 1.15298 8.61102 1.05777 8.80497 1.0192C8.99892 0.980636 9.19995 1.00044 9.38265 1.07611C9.56535 1.15178 9.72152 1.27992 9.8314 1.44433C9.94129 1.60874 9.99996 1.80204 10 1.99979V15.9998C9.99996 16.1975 9.94129 16.3908 9.8314 16.5552C9.72152 16.7197 9.56535 16.8478 9.38265 16.9235C9.19995 16.9991 8.99892 17.0189 8.80497 16.9804C8.61102 16.9418 8.43285 16.8466 8.293 16.7068L3.586 11.9998Z" stroke="white" stroke-width="2" stroke-linecap="round" stroke-linejoin="round"/>
</svg>
